<?xml version="1.0" standalone="no"?>
<!DOCTYPE svg PUBLIC "-//W3C//DTD SVG 20010904//EN"
 "http://www.w3.org/TR/2001/REC-SVG-20010904/DTD/svg10.dtd">
<svg version="1.0" xmlns="http://www.w3.org/2000/svg"
 width="16.000000pt" height="16.000000pt" viewBox="0 0 16.000000 16.000000"
 preserveAspectRatio="xMidYMid meet">

<g transform="translate(0.000000,16.000000) scale(0.100000,-0.100000)"
fill="#000000" stroke="none">
<path d="M0 80 l0 -80 80 0 80 0 0 80 0 80 -80 0 -80 0 0 -80z m102 25 c12
-17 9 -32 -7 -32 -8 0 -15 4 -15 8 0 4 -9 11 -20 14 -11 3 -20 10 -20 14 0 11
54 7 62 -4z m37 -52 c3 -2 -3 -11 -12 -20 -13 -13 -24 -15 -54 -7 -22 5 -39
16 -41 25 -2 14 5 15 50 11 29 -2 55 -6 57 -9z"/>
</g>
</svg>
